<svg xmlns="http://www.w3.org/2000/svg"><style>:root svg:not(:target){display:none}</style><svg viewBox="0 0 32 32" fill="none" id="icon-call"><path d="m12.56 6.5-.86.26a4.2 4.2 0 0 0-2.94 3.43c-.36 2.48.44 5.38 2.36 8.7 1.92 3.33 4.02 5.47 6.35 6.4a4.2 4.2 0 0 0 4.45-.84l.66-.62a2.4 2.4 0 0 0 .3-3.15l-1.64-2.25a1.8 1.8 0 0 0-1.98-.67l-2.46.75-.07.01c-.27.04-.9-.54-1.67-1.9-.82-1.4-.99-2.24-.76-2.45l1.25-1.17a3 3 0 0 0 .69-3.42l-.8-1.76a2.4 2.4 0 0 0-2.88-1.32Zm1.79 1.81.8 1.77a1.8 1.8 0 0 1-.42 2.05l-1.26 1.17c-.8.76-.53 2.06.55 3.93 1.01 1.75 1.94 2.62 2.94 2.47l.14-.03 2.51-.76a.6.6 0 0 1 .66.22l1.63 2.25a1.2 1.2 0 0 1-.15 1.58l-.65.62a3 3 0 0 1-3.18.6c-2.04-.82-3.97-2.77-5.76-5.88-1.8-3.11-2.53-5.76-2.21-7.94a3 3 0 0 1 2.1-2.45l.86-.26a1.2 1.2 0 0 1 1.44.66Z" fill="#000"></path></svg><svg viewBox="0 0 32 32" fill="none" id="icon-delivery"><path d="M25.33 9.33c0-1.46-1.2-2.66-2.66-2.66h-4v2.66h4v3.54l-4.64 5.8h-4.7v-6.67h-5.33a5.33 5.33 0 0 0-5.33 5.33v4h2.66a4 4 0 1 0 8 0h5.98l6.02-7.53v-4.47Zm-20 9.34v-1.34c0-1.46 1.2-2.66 2.67-2.66h2.67v4h-5.34Zm4 4c-.73 0-1.33-.6-1.33-1.34h2.67c0 .74-.6 1.34-1.34 1.34Z" fill="#0F805D"></path><path d="M6.67 8h6.66v2.67h-6.66v-2.67Zm18.66 9.33a4 4 0 1 0 0 8 4 4 0 0 0 0-8Zm0 5.34a1.34 1.34 0 0 1 0-2.67 1.34 1.34 0 1 1 0 2.67Z" fill="#0F805D"></path></svg><svg viewBox="0 0 32 32" fill="none" id="icon-email"><path d="M23.875 9H8.125C7.82663 9 7.54048 9.12292 7.3295 9.34171C7.11853 9.5605 7 9.85725 7 10.1667V21.8333C7 22.1428 7.11853 22.4395 7.3295 22.6583C7.54048 22.8771 7.82663 23 8.125 23H23.875C24.1734 23 24.4595 22.8771 24.6705 22.6583C24.8815 22.4395 25 22.1428 25 21.8333V10.1667C25 9.85725 24.8815 9.5605 24.6705 9.34171C24.4595 9.12292 24.1734 9 23.875 9ZM23.0087 21.8333H9.05875L12.9963 17.61L12.1863 16.7992L8.125 21.1567V11.0533L15.1169 18.2692C15.3277 18.4865 15.6128 18.6084 15.91 18.6084C16.2072 18.6084 16.4923 18.4865 16.7031 18.2692L23.875 10.8725V21.0808L19.735 16.7875L18.9419 17.61L23.0087 21.8333ZM8.86187 10.1667H22.9637L15.91 17.4408L8.86187 10.1667Z" fill="black"></path></svg><svg viewBox="0 0 32 32" fill="none" id="icon-leaf-italic"><path d="M12 22c11.96 0 12.92-10.17 13-15a.98.98 0 0 0-1-1c-17 .32-17 8.55-17 16m0 0v4m0-4s0-6 8-7" stroke="#0F805D" stroke-width="2" stroke-linecap="round" stroke-linejoin="round"></path></svg><svg viewBox="0 0 32 32" fill="none" id="icon-leaf"><path d="M21.49 9.98a14.2 14.2 0 0 0-5.11-5.07l-.38-.22-.38.22a14.11 14.11 0 0 0-7.05 12.72c.08 2.2.92 4.04 2.43 5.34 1.16 1 2.65 1.6 4.25 1.75v2.59h1.5v-12h-1.5v7.9a5.63 5.63 0 0 1-5.18-5.64v-.43a12.67 12.67 0 0 1 5.93-10.7 12.67 12.67 0 0 1 5.93 11.13 5.54 5.54 0 0 1-3.68 5.28v1.59a7.32 7.32 0 0 0 2.75-1.47 7.14 7.14 0 0 0 2.43-5.83c0-2.52-.67-5-1.94-7.16Z" fill="#000"></path></svg><svg viewBox="0 0 32 32" fill="none" id="icon-snow"><path d="M16 28a.92.92 0 0 1-.6-.22.7.7 0 0 1-.25-.53v-1.94l-1.11.97a.92.92 0 0 1-.6.22.92.92 0 0 1-.62-.22.7.7 0 0 1-.25-.53c0-.2.1-.39.26-.53l2.32-2.03v-5.9l-5.84 2.95-.85 2.78c-.06.2-.2.35-.4.45-.2.1-.43.13-.65.08a.85.85 0 0 1-.52-.35.67.67 0 0 1-.08-.57l.4-1.32-1.92.96c-.2.1-.43.13-.65.08a.85.85 0 0 1-.52-.35.67.67 0 0 1-.08-.57c.06-.2.2-.35.4-.45l1.92-.97-1.52-.36a.91.91 0 0 1-.3-.13.8.8 0 0 1-.22-.22.66.66 0 0 1-.08-.57c.02-.1.07-.18.14-.26a.83.83 0 0 1 .25-.2.94.94 0 0 1 .65-.07l3.17.74 5.84-2.94-5.83-2.94-3.18.74a.97.97 0 0 1-.64-.08.77.77 0 0 1-.4-.46.67.67 0 0 1 .09-.56c.11-.17.3-.3.51-.35l1.52-.36-1.93-.97a.84.84 0 0 1-.25-.19.72.72 0 0 1-.15-.26.66.66 0 0 1 .08-.57.8.8 0 0 1 .23-.22.98.98 0 0 1 .95-.05l1.92.96-.4-1.32a.66.66 0 0 1 .07-.58.79.79 0 0 1 .23-.22.98.98 0 0 1 .96-.05c.1.05.18.12.25.2a.6.6 0 0 1 .14.26l.85 2.78 5.84 2.94v-5.89l-2.32-2.03a.75.75 0 0 1-.2-.24.67.67 0 0 1 0-.58.76.76 0 0 1 .2-.24.87.87 0 0 1 .27-.16.97.97 0 0 1 .94.16l1.1.97v-1.94c0-.2.1-.39.26-.53a.92.92 0 0 1 .6-.22c.23 0 .45.08.61.22a.7.7 0 0 1 .25.53v1.94l1.11-.97a.92.92 0 0 1 .6-.22c.24 0 .45.08.62.22a.7.7 0 0 1 .25.53c0 .2-.1.39-.26.53l-2.32 2.03v5.9l5.83-2.95.85-2.78c.06-.2.2-.35.4-.45a1 1 0 0 1 .66-.08c.22.05.4.18.52.35.11.17.14.38.08.57l-.4 1.32 1.92-.96a.92.92 0 0 1 1.17.27c.1.17.14.38.08.57-.06.2-.2.35-.4.45l-1.92.97 1.52.36c.22.05.4.18.52.35.11.17.14.38.09.57-.06.2-.2.35-.4.45a1 1 0 0 1-.66.08l-3.17-.74-5.83 2.94 5.83 2.94 3.17-.74a.97.97 0 0 1 .65.08c.2.1.35.26.4.45.06.2.03.4-.08.57-.12.17-.3.3-.52.35l-1.52.36 1.92.97c.2.1.34.26.4.45.06.2.03.4-.09.57-.11.17-.3.3-.51.35a.97.97 0 0 1-.65-.08l-1.92-.96.4 1.32a.66.66 0 0 1-.08.58.79.79 0 0 1-.22.22.98.98 0 0 1-.96.05.83.83 0 0 1-.25-.2.71.71 0 0 1-.15-.26l-.85-2.78-5.83-2.94v5.89l2.32 2.03a.7.7 0 0 1 .25.53.7.7 0 0 1-.25.53.92.92 0 0 1-.6.22.92.92 0 0 1-.61-.22l-1.11-.97v1.94a.7.7 0 0 1-.25.53.92.92 0 0 1-.6.22Z" fill="#0F805D"></path></svg></svg>